<svg id="Group_93" data-name="Group 93" xmlns="http://www.w3.org/2000/svg" width="140" height="41.481" viewBox="0 0 140 41.481">
  <path id="Path_60" data-name="Path 60" d="M135.019,41.481H4.9A4.915,4.915,0,0,1,0,36.573V4.9A4.908,4.908,0,0,1,4.9,0H135.019A4.975,4.975,0,0,1,140,4.9V36.573a4.982,4.982,0,0,1-4.981,4.908Z" transform="translate(0)" fill="#a6a6a6"/>
  <path id="Path_61" data-name="Path 61" d="M138.963,36.541a3.972,3.972,0,0,1-3.976,3.972H4.871A3.977,3.977,0,0,1,.89,36.541V4.867A3.982,3.982,0,0,1,4.871.89H134.986a3.976,3.976,0,0,1,3.976,3.977V36.541Z" transform="translate(0.033 0.033)" fill="#20272b"/>
  <g id="Group_39" data-name="Group 39" transform="translate(13.266 6.447)">
    <g id="Group_38" data-name="Group 38">
      <path id="Path_26" data-name="Path 26" d="M30.77,20.059a6.011,6.011,0,0,1,2.863-5.044,6.157,6.157,0,0,0-4.849-2.622c-2.04-.215-4.019,1.221-5.058,1.221-1.06,0-2.66-1.2-4.385-1.165a6.456,6.456,0,0,0-5.434,3.314c-2.35,4.068-.6,10.047,1.654,13.335,1.126,1.611,2.442,3.409,4.165,3.345,1.685-.069,2.315-1.074,4.348-1.074,2.015,0,2.606,1.074,4.363,1.034,1.809-.029,2.947-1.618,4.034-3.243A13.307,13.307,0,0,0,34.317,25.4,5.811,5.811,0,0,1,30.77,20.059Z" transform="translate(-12.792 -5.989)" fill="#fff"/>
      <path id="Path_27" data-name="Path 27" d="M27.07,10.457a5.917,5.917,0,0,0,1.354-4.24,6.027,6.027,0,0,0-3.9,2.016,5.631,5.631,0,0,0-1.39,4.084A4.979,4.979,0,0,0,27.07,10.457Z" transform="translate(-12.41 -6.217)" fill="#fff"/>
    </g>
  </g>
  <g id="Group_40" data-name="Group 40" transform="translate(43.981 18.667)">
    <path id="Path_28" data-name="Path 28" d="M54.061,32H51.706l-1.29-4.054H45.932L44.7,32H42.41l4.443-13.8H49.6Zm-4.034-5.754-1.167-3.6q-.185-.552-.7-2.6h-.041q-.2.88-.655,2.6l-1.146,3.6Z" transform="translate(-42.41 -17.994)" fill="#fff"/>
    <path id="Path_29" data-name="Path 29" d="M65,26.769a5.655,5.655,0,0,1-1.372,4.012,4.012,4.012,0,0,1-3.051,1.311,3.051,3.051,0,0,1-2.826-1.412h-.041v5.242H55.5V25.191q0-1.6-.082-3.276h1.944l.123,1.577h.041a3.934,3.934,0,0,1,6.3-.39A5.483,5.483,0,0,1,65,26.769Zm-2.252.081a4.1,4.1,0,0,0-.655-2.4,2.264,2.264,0,0,0-1.925-.983,2.3,2.3,0,0,0-1.484.542,2.516,2.516,0,0,0-.87,1.424,2.9,2.9,0,0,0-.1.674V27.77a2.659,2.659,0,0,0,.666,1.833,2.207,2.207,0,0,0,1.73.748,2.264,2.264,0,0,0,1.944-.962A4.236,4.236,0,0,0,62.752,26.849Z" transform="translate(-41.928 -17.864)" fill="#fff"/>
    <path id="Path_30" data-name="Path 30" d="M76.041,26.769a5.651,5.651,0,0,1-1.373,4.012,4.008,4.008,0,0,1-3.05,1.311,3.048,3.048,0,0,1-2.825-1.412h-.041v5.242H66.541V25.191q0-1.6-.082-3.276H68.4l.123,1.577h.041a3.935,3.935,0,0,1,6.3-.39A5.5,5.5,0,0,1,76.041,26.769Zm-2.252.081a4.1,4.1,0,0,0-.656-2.4,2.261,2.261,0,0,0-1.924-.983,2.3,2.3,0,0,0-1.485.542,2.514,2.514,0,0,0-.869,1.424,2.952,2.952,0,0,0-.1.674V27.77a2.667,2.667,0,0,0,.664,1.833,2.211,2.211,0,0,0,1.732.748,2.264,2.264,0,0,0,1.944-.962A4.236,4.236,0,0,0,73.789,26.849Z" transform="translate(-41.519 -17.864)" fill="#fff"/>
    <path id="Path_31" data-name="Path 31" d="M88.345,28.134A3.678,3.678,0,0,1,87.119,31a5.433,5.433,0,0,1-3.759,1.208,6.58,6.58,0,0,1-3.577-.86l.512-1.843a6.061,6.061,0,0,0,3.2.881,3.022,3.022,0,0,0,1.947-.564,1.842,1.842,0,0,0,.695-1.508,1.922,1.922,0,0,0-.573-1.415,5.331,5.331,0,0,0-1.9-1.067q-3.624-1.352-3.623-3.957a3.5,3.5,0,0,1,1.27-2.789A5.008,5.008,0,0,1,84.681,18a6.7,6.7,0,0,1,3.132.655l-.553,1.8a5.434,5.434,0,0,0-2.641-.635A2.674,2.674,0,0,0,82.8,20.4a1.639,1.639,0,0,0-.553,1.25A1.687,1.687,0,0,0,82.879,23a7.161,7.161,0,0,0,2.008,1.065,6.812,6.812,0,0,1,2.621,1.678A3.506,3.506,0,0,1,88.345,28.134Z" transform="translate(-41.026 -18.001)" fill="#fff"/>
    <path id="Path_32" data-name="Path 32" d="M95.3,23.656H92.867v4.832q0,1.843,1.29,1.843a3.932,3.932,0,0,0,.982-.1l.061,1.679a5.01,5.01,0,0,1-1.719.245,2.653,2.653,0,0,1-2.048-.8A3.923,3.923,0,0,1,90.7,28.67V23.654H89.244V21.994H90.7V20.172l2.172-.655v2.477H95.3v1.661Z" transform="translate(-40.675 -17.945)" fill="#fff"/>
    <path id="Path_33" data-name="Path 33" d="M106.039,26.809a5.459,5.459,0,0,1-1.311,3.768,4.68,4.68,0,0,1-3.646,1.515,4.45,4.45,0,0,1-3.49-1.453,5.291,5.291,0,0,1-1.3-3.665,5.405,5.405,0,0,1,1.341-3.787,4.641,4.641,0,0,1,3.613-1.475,4.545,4.545,0,0,1,3.522,1.454A5.231,5.231,0,0,1,106.039,26.809Zm-2.294.072a4.476,4.476,0,0,0-.593-2.361,2.184,2.184,0,0,0-1.985-1.191,2.217,2.217,0,0,0-2.027,1.191,4.562,4.562,0,0,0-.593,2.4,4.47,4.47,0,0,0,.593,2.36,2.26,2.26,0,0,0,3.993-.021A4.492,4.492,0,0,0,103.745,26.881Z" transform="translate(-40.414 -17.864)" fill="#fff"/>
    <path id="Path_34" data-name="Path 34" d="M112.811,23.86a3.839,3.839,0,0,0-.7-.061,2.089,2.089,0,0,0-1.8.881,3.313,3.313,0,0,0-.553,1.965v5.221h-2.21l.021-6.817q0-1.72-.083-3.133h1.926l.081,1.9h.061a3.4,3.4,0,0,1,1.105-1.576,2.673,2.673,0,0,1,1.6-.533,3.55,3.55,0,0,1,.553.04Z" transform="translate(-40 -17.864)" fill="#fff"/>
    <path id="Path_35" data-name="Path 35" d="M122.472,26.421a5.186,5.186,0,0,1-.081,1h-6.633a2.887,2.887,0,0,0,.962,2.253,3.286,3.286,0,0,0,2.169.7,7.336,7.336,0,0,0,2.684-.471l.346,1.535a8.3,8.3,0,0,1-3.336.615,4.833,4.833,0,0,1-3.636-1.362,5.029,5.029,0,0,1-1.32-3.655,5.7,5.7,0,0,1,1.23-3.747,4.237,4.237,0,0,1,3.479-1.6,3.708,3.708,0,0,1,3.257,1.6A5.382,5.382,0,0,1,122.472,26.421Zm-2.108-.573a3,3,0,0,0-.429-1.7,1.931,1.931,0,0,0-1.762-.922,2.1,2.1,0,0,0-1.76.9,3.3,3.3,0,0,0-.654,1.719h4.605Z" transform="translate(-39.772 -17.864)" fill="#fff"/>
  </g>
  <g id="Group_42" data-name="Group 42" transform="translate(45.294 6.799)">
    <g id="Group_41" data-name="Group 41">
      <path id="Path_36" data-name="Path 36" d="M49.249,10.126a3.4,3.4,0,0,1-1.1,2.756,4.364,4.364,0,0,1-2.886.855,13.382,13.382,0,0,1-1.59-.081V6.987a11.732,11.732,0,0,1,1.872-.141,4.035,4.035,0,0,1,2.686.775A3.131,3.131,0,0,1,49.249,10.126Zm-1.146.03a2.479,2.479,0,0,0-.628-1.821A2.477,2.477,0,0,0,45.638,7.7a4.6,4.6,0,0,0-.875.071v5.07a5.738,5.738,0,0,0,.734.03,2.571,2.571,0,0,0,1.926-.694A2.778,2.778,0,0,0,48.1,10.156Z" transform="translate(-43.676 -6.545)" fill="#fff"/>
      <path id="Path_37" data-name="Path 37" d="M55.08,11.126a2.681,2.681,0,0,1-.644,1.851,2.3,2.3,0,0,1-1.791.745,2.185,2.185,0,0,1-1.715-.715,2.6,2.6,0,0,1-.638-1.8,2.655,2.655,0,0,1,.659-1.86,2.284,2.284,0,0,1,1.775-.724,2.236,2.236,0,0,1,1.731.713A2.581,2.581,0,0,1,55.08,11.126Zm-1.127.035A2.211,2.211,0,0,0,53.661,10a1.073,1.073,0,0,0-.975-.585,1.09,1.09,0,0,0-1,.585,2.241,2.241,0,0,0-.291,1.18,2.211,2.211,0,0,0,.291,1.16,1.1,1.1,0,0,0,.986.585,1.084,1.084,0,0,0,.975-.6A2.2,2.2,0,0,0,53.953,11.162Z" transform="translate(-43.431 -6.479)" fill="#fff"/>
      <path id="Path_38" data-name="Path 38" d="M63.018,8.719l-1.53,4.889h-1l-.634-2.123a15.886,15.886,0,0,1-.393-1.579h-.02a11.563,11.563,0,0,1-.393,1.579l-.673,2.123H57.373L55.935,8.719h1.117l.553,2.324q.2.824.332,1.569h.02q.121-.613.4-1.559l.694-2.333h.886L60.6,11q.241.835.392,1.609h.03A15.377,15.377,0,0,1,61.358,11l.593-2.284h1.067Z" transform="translate(-43.222 -6.476)" fill="#fff"/>
      <path id="Path_39" data-name="Path 39" d="M68.351,13.611H67.264v-2.8q0-1.294-.985-1.294a.981.981,0,0,0-.785.356,1.262,1.262,0,0,0-.3.838v2.9H64.105V10.12q0-.644-.039-1.4h.955l.051.764h.03a1.57,1.57,0,0,1,.563-.59,1.837,1.837,0,0,1,.985-.275,1.56,1.56,0,0,1,1.138.443,2.152,2.152,0,0,1,.563,1.62Z" transform="translate(-42.921 -6.48)" fill="#fff"/>
      <path id="Path_40" data-name="Path 40" d="M71.127,13.688H70.041V6.556h1.086Z" transform="translate(-42.7 -6.556)" fill="#fff"/>
      <path id="Path_41" data-name="Path 41" d="M77.429,11.126a2.681,2.681,0,0,1-.644,1.851,2.3,2.3,0,0,1-1.791.745,2.182,2.182,0,0,1-1.715-.715,2.6,2.6,0,0,1-.638-1.8,2.655,2.655,0,0,1,.659-1.86,2.283,2.283,0,0,1,1.774-.724,2.238,2.238,0,0,1,1.732.713A2.581,2.581,0,0,1,77.429,11.126Zm-1.128.035A2.211,2.211,0,0,0,76.009,10a1.072,1.072,0,0,0-.974-.585,1.088,1.088,0,0,0-1,.585,2.241,2.241,0,0,0-.291,1.18,2.211,2.211,0,0,0,.291,1.16,1.1,1.1,0,0,0,.986.585,1.083,1.083,0,0,0,.974-.6A2.188,2.188,0,0,0,76.3,11.162Z" transform="translate(-42.603 -6.479)" fill="#fff"/>
      <path id="Path_42" data-name="Path 42" d="M82.473,13.611H81.5l-.081-.563h-.03a1.674,1.674,0,0,1-1.428.674,1.474,1.474,0,0,1-1.116-.443,1.388,1.388,0,0,1-.383-1,1.519,1.519,0,0,1,.75-1.368,3.891,3.891,0,0,1,2.108-.463v-.091q0-.966-1.015-.965a2.274,2.274,0,0,0-1.275.362l-.221-.713a3.135,3.135,0,0,1,1.677-.422q1.916,0,1.919,2.022v1.8A7.635,7.635,0,0,0,82.473,13.611Zm-1.128-1.68v-.754q-1.8-.031-1.8.985a.736.736,0,0,0,.208.573.76.76,0,0,0,.531.191,1.1,1.1,0,0,0,.665-.226.928.928,0,0,0,.394-.769Z" transform="translate(-42.388 -6.479)" fill="#fff"/>
      <path id="Path_43" data-name="Path 43" d="M88.452,13.688h-.964l-.051-.785h-.03a1.625,1.625,0,0,1-1.57.9,1.84,1.84,0,0,1-1.468-.694,2.7,2.7,0,0,1-.583-1.8,2.834,2.834,0,0,1,.634-1.922A1.948,1.948,0,0,1,85.928,8.7a1.465,1.465,0,0,1,1.377.664h.021V6.556h1.088v5.815Q88.413,13.085,88.452,13.688Zm-1.126-2.062v-.815a1.6,1.6,0,0,0-.03-.342A1.238,1.238,0,0,0,86.9,9.81a1.068,1.068,0,0,0-.727-.267,1.115,1.115,0,0,0-.956.483,2.071,2.071,0,0,0-.348,1.237,1.931,1.931,0,0,0,.334,1.177,1.119,1.119,0,0,0,.95.482,1.047,1.047,0,0,0,.859-.4A1.34,1.34,0,0,0,87.325,11.626Z" transform="translate(-42.19 -6.556)" fill="#fff"/>
      <path id="Path_44" data-name="Path 44" d="M97.419,11.126a2.681,2.681,0,0,1-.644,1.851,2.3,2.3,0,0,1-1.791.745,2.188,2.188,0,0,1-1.715-.715,2.6,2.6,0,0,1-.638-1.8,2.655,2.655,0,0,1,.659-1.86,2.285,2.285,0,0,1,1.776-.724,2.233,2.233,0,0,1,1.73.713A2.581,2.581,0,0,1,97.419,11.126Zm-1.126.035A2.211,2.211,0,0,0,96,10a1.075,1.075,0,0,0-.976-.585,1.092,1.092,0,0,0-1,.585,2.241,2.241,0,0,0-.291,1.18,2.211,2.211,0,0,0,.291,1.16,1.111,1.111,0,0,0,1.962-.01A2.206,2.206,0,0,0,96.293,11.162Z" transform="translate(-41.863 -6.479)" fill="#fff"/>
      <path id="Path_45" data-name="Path 45" d="M103.036,13.611H101.95v-2.8q0-1.294-.986-1.294a.977.977,0,0,0-.784.356,1.257,1.257,0,0,0-.3.838v2.9H98.79V10.12q0-.644-.038-1.4h.954l.051.764h.03a1.586,1.586,0,0,1,.563-.59,1.84,1.84,0,0,1,.986-.275,1.559,1.559,0,0,1,1.137.443,2.148,2.148,0,0,1,.563,1.62Z" transform="translate(-41.636 -6.48)" fill="#fff"/>
      <path id="Path_46" data-name="Path 46" d="M110.042,9.577h-1.2v2.375c0,.6.213.905.634.905a1.914,1.914,0,0,0,.484-.051l.028.824a2.442,2.442,0,0,1-.844.121,1.3,1.3,0,0,1-1-.392,1.917,1.917,0,0,1-.363-1.318V9.577h-.715V8.762h.715v-.9l1.065-.321V8.761h1.2v.815Z" transform="translate(-41.328 -6.519)" fill="#fff"/>
      <path id="Path_47" data-name="Path 47" d="M115.636,13.688h-1.088V10.908q0-1.314-.984-1.315a1.037,1.037,0,0,0-1.037.762,1.366,1.366,0,0,0-.051.391v2.94H111.39V6.556h1.086V9.5h.021a1.643,1.643,0,0,1,1.468-.8,1.515,1.515,0,0,1,1.118.443,2.226,2.226,0,0,1,.553,1.64v2.907Z" transform="translate(-41.168 -6.556)" fill="#fff"/>
      <path id="Path_48" data-name="Path 48" d="M121.362,10.936a2.624,2.624,0,0,1-.04.493h-3.259a1.425,1.425,0,0,0,.472,1.107,1.619,1.619,0,0,0,1.067.342,3.6,3.6,0,0,0,1.318-.231l.17.755a4.093,4.093,0,0,1-1.641.3,2.369,2.369,0,0,1-1.785-.669,2.464,2.464,0,0,1-.648-1.8,2.8,2.8,0,0,1,.6-1.841,2.078,2.078,0,0,1,1.709-.784,1.818,1.818,0,0,1,1.6.784A2.61,2.61,0,0,1,121.362,10.936Zm-1.037-.281a1.463,1.463,0,0,0-.211-.835.949.949,0,0,0-.865-.453,1.032,1.032,0,0,0-.865.443,1.645,1.645,0,0,0-.323.845Z" transform="translate(-40.96 -6.48)" fill="#fff"/>
    </g>
  </g>
</svg>
