<svg id="Group_94" data-name="Group 94" xmlns="http://www.w3.org/2000/svg" xmlns:xlink="http://www.w3.org/1999/xlink" width="140" height="41.481" viewBox="0 0 140 41.481">
  <defs>
    <linearGradient id="linear-gradient" x1="2.472" y1="1.035" x2="2.361" y2="1.005" gradientUnits="objectBoundingBox">
      <stop offset="0" stop-color="#00a0ff"/>
      <stop offset="0.007" stop-color="#00a1ff"/>
      <stop offset="0.26" stop-color="#00beff"/>
      <stop offset="0.512" stop-color="#00d2ff"/>
      <stop offset="0.76" stop-color="#00dfff"/>
      <stop offset="1" stop-color="#00e3ff"/>
    </linearGradient>
    <linearGradient id="linear-gradient-2" x1="1.95" y1="1.879" x2="1.69" y2="1.879" gradientUnits="objectBoundingBox">
      <stop offset="0" stop-color="#ffe000"/>
      <stop offset="0.409" stop-color="#ffbd00"/>
      <stop offset="0.775" stop-color="orange"/>
      <stop offset="1" stop-color="#ff9c00"/>
    </linearGradient>
    <linearGradient id="linear-gradient-3" x1="1.926" y1="0.946" x2="1.835" y2="0.793" gradientUnits="objectBoundingBox">
      <stop offset="0" stop-color="#ff3a44"/>
      <stop offset="1" stop-color="#c31162"/>
    </linearGradient>
    <linearGradient id="linear-gradient-4" x1="1.856" y1="2.093" x2="1.897" y2="2.025" gradientUnits="objectBoundingBox">
      <stop offset="0" stop-color="#32a071"/>
      <stop offset="0.068" stop-color="#2da771"/>
      <stop offset="0.476" stop-color="#15cf74"/>
      <stop offset="0.801" stop-color="#06e775"/>
      <stop offset="1" stop-color="#00f076"/>
    </linearGradient>
  </defs>
  <path id="Path_62" data-name="Path 62" d="M135.019,41.481H4.9A4.915,4.915,0,0,1,0,36.573V4.9A4.908,4.908,0,0,1,4.9,0H135.019A4.975,4.975,0,0,1,140,4.9V36.573a4.982,4.982,0,0,1-4.981,4.908Z" transform="translate(0 0)" fill="#a6a6a6"/>
  <path id="Path_63" data-name="Path 63" d="M138.963,36.541a3.972,3.972,0,0,1-3.976,3.972H4.871A3.977,3.977,0,0,1,.89,36.541V4.867A3.982,3.982,0,0,1,4.871.89H134.986a3.976,3.976,0,0,1,3.976,3.977V36.541Z" transform="translate(0.033 0.033)" fill="#20272b"/>
  <path id="Path_51" data-name="Path 51" d="M1685.446,277.978a3.144,3.144,0,0,1-2.346-.971,3.307,3.307,0,0,1-.948-2.37,3.234,3.234,0,0,1,.948-2.367,3.134,3.134,0,0,1,2.344-.971,3.175,3.175,0,0,1,2.346.971,3.429,3.429,0,0,1,0,4.734A3.117,3.117,0,0,1,1685.446,277.978Zm-27.818,0a3.259,3.259,0,0,1-2.357-.958,3.338,3.338,0,0,1,2.357-5.718,3.285,3.285,0,0,1,1.316.273,2.661,2.661,0,0,1,1,.716l.062.075-.7.685-.072-.085a1.984,1.984,0,0,0-1.62-.7,2.239,2.239,0,0,0-1.615.659,2.5,2.5,0,0,0,0,3.431,2.361,2.361,0,0,0,3.273,0,1.785,1.785,0,0,0,.474-1.074h-2.238v-.963h3.2l.013.088a3.57,3.57,0,0,1,.046.484,2.9,2.9,0,0,1-.8,2.138A3.116,3.116,0,0,1,1657.628,277.978Zm36.987-.137h-.986l-3.021-4.834.026.871v3.961h-.987v-6.4h1.126l.031.049,2.841,4.554-.026-.868v-3.734h1Zm-16.581,0h-1V272.4H1675.3v-.963h4.464v.963h-1.733v5.439Zm-3.547,0h-1v-6.4h1Zm-5.6,0h-1V272.4h-1.733v-.963h4.463v.963h-1.733Zm-3.361-.01H1661.7v-6.392h3.822v.963H1662.7v1.757h2.547v.953H1662.7v1.757h2.823Zm18.307-1.486a2.205,2.205,0,0,0,1.615.67,2.15,2.15,0,0,0,1.615-.67,2.537,2.537,0,0,0,0-3.41,2.209,2.209,0,0,0-1.615-.67,2.141,2.141,0,0,0-1.612.67,2.542,2.542,0,0,0,0,3.41Z" transform="translate(-1611.693 -264.313)" fill="#fff"/>
  <path id="Path_52" data-name="Path 52" d="M1674.655,687.878a4.394,4.394,0,1,0,4.407,4.394A4.325,4.325,0,0,0,1674.655,687.878Zm0,7.047a2.67,2.67,0,1,1,2.478-2.663A2.543,2.543,0,0,1,1674.655,694.925Zm-9.614-7.047a4.394,4.394,0,1,0,4.407,4.394A4.325,4.325,0,0,0,1665.04,687.878Zm0,7.047a2.67,2.67,0,1,1,2.477-2.663A2.543,2.543,0,0,1,1665.04,694.925Zm-11.441-5.7v1.859h4.463a3.919,3.919,0,0,1-1.01,2.341,4.554,4.554,0,0,1-3.443,1.365,4.958,4.958,0,0,1,0-9.916,4.765,4.765,0,0,1,3.361,1.331l1.319-1.319a6.485,6.485,0,0,0-4.67-1.883,6.818,6.818,0,1,0,0,13.635,6.241,6.241,0,0,0,4.762-1.916,6.17,6.17,0,0,0,1.617-4.36,5.746,5.746,0,0,0-.1-1.159h-6.3S1653.6,689.22,1653.6,689.22Zm46.794,1.447a4.082,4.082,0,0,0-3.762-2.8,4.174,4.174,0,0,0-4.141,4.394,4.294,4.294,0,0,0,4.36,4.394,4.361,4.361,0,0,0,3.66-1.95l-1.491-1a2.5,2.5,0,0,1-2.158,1.216,2.244,2.244,0,0,1-2.135-1.332l5.875-2.434S1700.394,690.667,1700.394,690.667Zm-5.991,1.468a2.412,2.412,0,0,1,2.295-2.56,1.694,1.694,0,0,1,1.63.93Zm-4.772,4.257h1.929V683.484h-1.929Zm-3.168-7.539h-.07a3.043,3.043,0,0,0-2.318-.986,4.394,4.394,0,0,0,0,8.78,3.035,3.035,0,0,0,2.318-1h.07v.631c0,1.677-.9,2.581-2.341,2.581a2.436,2.436,0,0,1-2.215-1.561l-1.677.7a4.194,4.194,0,0,0,3.889,2.594c2.261,0,4.177-1.332,4.177-4.579V688.13h-1.823v.724Zm-2.215,6.07a2.671,2.671,0,0,1,0-5.324,2.47,2.47,0,0,1,2.341,2.673A2.439,2.439,0,0,1,1684.249,694.925Zm25.178-11.44h-4.613v12.908h1.929V691.5h2.686a4.016,4.016,0,1,0,0-8.02Zm.057,6.217h-2.743v-4.43h2.743a2.215,2.215,0,1,1,0,4.43Zm11.912-1.847a3.633,3.633,0,0,0-3.443,1.973l1.71.711a1.834,1.834,0,0,1,1.757-.953,1.863,1.863,0,0,1,2.032,1.664v.136a4.322,4.322,0,0,0-2.009-.494c-1.847,0-3.719,1.01-3.719,2.9a2.984,2.984,0,0,0,3.2,2.846,2.716,2.716,0,0,0,2.455-1.262h.069v1h1.86v-4.945C1725.307,689.13,1723.6,687.855,1721.4,687.855Zm-.242,7.07c-.631,0-1.514-.309-1.514-1.1,0-1,1.1-1.378,2.042-1.378a3.349,3.349,0,0,1,1.757.435A2.322,2.322,0,0,1,1721.153,694.925Zm10.938-6.794-2.215,5.6h-.069l-2.295-5.6h-2.076l3.443,7.827-1.963,4.35h2.009l5.3-12.177Zm-17.364,8.262h1.929V683.484h-1.929Z" transform="translate(-1604.289 -665.409)" fill="#fff" fill-rule="evenodd"/>
  <path id="Path_53" data-name="Path 53" d="M400.571,299.47a2.092,2.092,0,0,0-.471,1.458v22.837a1.991,1.991,0,0,0,.482,1.445l.08.07,12.8-12.8V312.2l-12.805-12.8Z" transform="translate(-389.795 -291.689)" fill-rule="evenodd" fill="url(#linear-gradient)"/>
  <path id="Path_54" data-name="Path 54" d="M922.568,639.334l-4.268-4.268v-.3l4.268-4.268.093.057,5.048,2.869c1.445.814,1.445,2.158,0,2.982l-5.048,2.869Z" transform="translate(-894.649 -614.261)" fill-rule="evenodd" fill="url(#linear-gradient-2)"/>
  <path id="Path_55" data-name="Path 55" d="M435.635,806.36l-4.36-4.36L418.4,814.875a1.69,1.69,0,0,0,2.145.07l15.09-8.584" transform="translate(-407.624 -781.344)" fill-rule="evenodd" fill="url(#linear-gradient-3)"/>
  <path id="Path_56" data-name="Path 56" d="M435.635,295.4l-15.09-8.571a1.673,1.673,0,0,0-2.145.07l12.875,12.862Z" transform="translate(-407.624 -279.102)" fill-rule="evenodd" fill="url(#linear-gradient-4)"/>
  <path id="Path_57" data-name="Path 57" d="M435.932,967.7l-14.987,8.515a1.7,1.7,0,0,1-2.066.01l-.08.08.08.07a1.7,1.7,0,0,0,2.066-.01l15.09-8.571Z" transform="translate(-408.014 -942.777)" fill="#20272b" fill-rule="evenodd" opacity="0.2"/>
  <path id="Path_58" data-name="Path 58" d="M1088.654,803.342l-5.154,2.926.093.093,5.048-2.869A1.809,1.809,0,0,0,1089.72,802,1.859,1.859,0,0,1,1088.654,803.342Z" transform="translate(-1055.594 -781.344)" fill="#20272b" fill-rule="evenodd" opacity="0.12"/>
  <path id="Path_59" data-name="Path 59" d="M402.717,286.805l20.138,11.44a1.9,1.9,0,0,1,1.079,1.342,1.809,1.809,0,0,0-1.079-1.491l-20.138-11.44c-1.445-.827-2.617-.137-2.617,1.514v.149C400.1,286.666,401.272,285.989,402.717,286.805Z" transform="translate(-389.795 -278.932)" fill="#fff" fill-rule="evenodd" opacity="0.25"/>
</svg>
