<svg xmlns="http://www.w3.org/2000/svg" width="128.226" height="33" viewBox="0 0 128.226 33">
  <g id="Group_7403" data-name="Group 7403" transform="translate(-272.218 162)">
    <text id="Zaaruu" transform="translate(356.444 -136)" fill="#20272b" font-size="27" font-family="SFProDisplay-Bold, SF Pro Display" font-weight="700"><tspan x="-43.763" y="0">Zaaruu</tspan></text>
    <path id="Path_3307" data-name="Path 3307" d="M190.125-101.029a41.013,41.013,0,0,0-4.817,3.777l4.817,3.188v-1.725H201.8L187.4-82.515s-1.217,1.266-1.472,1.62a3.13,3.13,0,0,0-.551,1.069c-.212.594-.461,2.432,1.526,2.432,2.5,0,17.028.127,17.028.127s1.635-.461,1.855-.573c-.213.109,3.02-1.083,4.3-5.445-2.946,2.842-6.166,2.391-9.389,2.391h-9.328s15.055-14.395,15.334-14.669c.154-.266.268-.258.321-.545.228-1.276.579-3.014-2.068-2.945-2.668.069-14.837,0-14.837,0Z" transform="translate(86.978 -55.604)" fill="#ec7523"/>
    <line id="Line_69" data-name="Line 69" y2="15" transform="translate(303.719 -152.5)" fill="none" stroke="#20272b" strokeWidth="1"/>
  </g>
</svg>
