<svg xmlns="http://www.w3.org/2000/svg" width="250" height="199.463" viewBox="0 0 250 199.463">
  <g id="success" transform="translate(-4.993 -34.314)">
    <path id="Path_24193" data-name="Path 24193" d="M108.83,201.269a8.319,8.319,0,0,0-5.234-3.683,4.915,4.915,0,0,0-1.724-.185c-5.048-.024-4.138-7.04-6.055-10.13a13.707,13.707,0,0,0-11.239-6.466,11.954,11.954,0,0,0-6.035,1.767c-2.2,1.3-4.194,1.436-6.231-.317-3.672-3.16-7.322-5.508-12.328-5.819a17.9,17.9,0,0,0-12.854,4.629,20.988,20.988,0,0,0-4.545,5.736c-1.192,2.216-2.347,4.4-4.973,2.394-3.981-3.048-8.405-4.274-13.3-2.456a17.3,17.3,0,0,0-9.607,9.421,26.6,26.6,0,0,0-1.67,6.535c-.481,2.919-1.7,3.542-4.125,4.914-4.138,2.337-4.592,7.656-3.242,11.811,1.229,3.781,4.483,7.29,8.773,6.761,2.192-.269,3.728-1.085,5.51.759s3.159,3.785,5.335,5.276c7.9,5.41,18.225,4.52,26.546.594,4.733-2.233,8.592-5.481,12.551-8.821,4.549-3.836,7.139,2.586,10.6,4.757a14.159,14.159,0,0,0,13.684.862,15.418,15.418,0,0,0,5.345-4.381c1.307-1.678,1.927-4.347,3.781-5.5,1.724-1.078,3.91-.442,5.772-1.293a11.686,11.686,0,0,0,4.961-4.921C110.683,209.808,111.242,204.988,108.83,201.269Zm-6.792,16.716c-2.3.551-4.339-.023-6.046,2.085s-2.392,4.589-4.487,6.481a13.119,13.119,0,0,1-12.773,2.895,14.666,14.666,0,0,1-5.793-3.535c-1.624-1.608-2.56-3.9-5.1-4.166-2.347-.247-3.831,1.331-5.431,2.764a49.347,49.347,0,0,1-6.16,4.714,36.973,36.973,0,0,1-13.21,5.475,23.578,23.578,0,0,1-14.366-1.638,20.1,20.1,0,0,1-5.764-4.072c-1.552-1.578-2.555-3.848-4.957-4.258-2.21-.378-4.076.972-6.348.2a8.04,8.04,0,0,1-4.55-4.521c-1.6-3.55-1.905-9.215,1.761-11.646,2.041-1.353,4.052-1.709,4.854-4.366.728-2.426.724-4.934,1.7-7.333a16.58,16.58,0,0,1,9.279-9.432,12.287,12.287,0,0,1,7.193-.524c2.574.632,3.977,2.46,6.207,3.548,2.088,1.02,3.755-.267,4.7-2.048a24.071,24.071,0,0,1,4.326-6.188,17.031,17.031,0,0,1,12.7-5.04A17.452,17.452,0,0,1,66.5,179.13c2.414,1.18,3.927,3.235,6.14,4.6,2.414,1.489,4.435.724,6.688-.528a10.7,10.7,0,0,1,6.7-1.345,12.628,12.628,0,0,1,10.127,8.463c.71,2.3.409,4.914,2.32,6.668a4.6,4.6,0,0,0,2.714,1.309,2.9,2.9,0,0,0,.653.043,14.509,14.509,0,0,0,1.922.253c3.81,1.035,5.9,5.126,5.727,8.874C109.3,211.564,106.3,216.965,102.038,217.985Z" transform="translate(0 -19.597)" fill="#b5e6d2"/>
    <path id="Path_24194" data-name="Path 24194" d="M143.394,140.893c-.195-1.724-.386-3.441-.6-5.16q-1.078-8.839-2.414-17.644c-.068-.452-.755-.259-.69.19q1.583,10.467,2.794,20.985A14.306,14.306,0,0,0,143.394,140.893Z" transform="translate(-18.576 -11.518)" fill="#20272b"/>
    <path id="Path_24195" data-name="Path 24195" d="M141.975,148.927a13.449,13.449,0,0,0-1.966-6.478,8.1,8.1,0,0,0-6.612-3.85c-3.429.041-6.261,2.7-9.594,3.51-1.948.474-4.165.359-5.717,1.629a1.828,1.828,0,0,0-.673,2.259,1.889,1.889,0,0,0,1.79.621,7.807,7.807,0,0,1,1.983-.152.505.505,0,0,1,.377.2c.162.281-.2.562-.5.69a10.449,10.449,0,0,0-2.62,1.666,1.731,1.731,0,0,0-.776,1.422c.1.663.872,1.014,1.541,1s1.315-.278,1.983-.293a.594.594,0,0,1,.532.195c.133.2,0,.476-.153.662a18.787,18.787,0,0,1-1.859,1.454c-.58.534-.925,1.519-.375,2.085.509.523,1.379.316,2.055.039a30.8,30.8,0,0,0,2.791-1.351c-.028.259-.051.523-.066.785a11.734,11.734,0,0,0,1.161,6.239c2.044,3.768,6.679,4.581,10.592,4.036a9.935,9.935,0,0,0,5.459-2.423,8.733,8.733,0,0,0,2.586-5.271,12.978,12.978,0,0,0,.116-1.705,12.6,12.6,0,0,0-2.055-6.965Zm-.483,12.349a7.917,7.917,0,0,1-4.327,2.791,13.26,13.26,0,0,1-6.151.172,7.311,7.311,0,0,1-4.288-2.489,8.793,8.793,0,0,1-1.666-5.042,12.975,12.975,0,0,1,1.053-6.1,8.535,8.535,0,0,1,3.727-4.052,9.068,9.068,0,0,1,6.017-.722c4.052.871,6.638,4.466,7.123,8.448a13.753,13.753,0,0,1,.1,1.62,8.966,8.966,0,0,1-1.584,5.375Z" transform="translate(-15.477 -14.382)" fill="#fe9f60"/>
    <ellipse id="Ellipse_601" data-name="Ellipse 601" cx="53.611" cy="48.576" rx="53.611" ry="48.576" transform="translate(78.53 34.314)" fill="#fe9f60"/>
    <circle id="Ellipse_602" data-name="Ellipse 602" cx="0.872" cy="0.872" r="0.872" transform="translate(113.206 140.92)" fill="#20272b"/>
    <path id="Path_24196" data-name="Path 24196" d="M170.1,171.82a14.105,14.105,0,0,0-1.866,1.831,54.936,54.936,0,0,1-4.832,5.31,11.978,11.978,0,0,1-6.325,3.172,11.491,11.491,0,0,1-7.307-1.885c-2.182-1.347-3.905-3.3-5.85-4.969-1.136-.978-3.781-.706-4.6.552a6.252,6.252,0,0,0-.589,4.355,18.089,18.089,0,0,0,11.852,13.833,21.389,21.389,0,0,0,18.32-2.439,20.405,20.405,0,0,0,5.192-4.815,38.621,38.621,0,0,1-4-14.946Z" transform="translate(-18.423 -18.963)" fill="#b7e9d4"/>
    <circle id="Ellipse_603" data-name="Ellipse 603" cx="0.872" cy="0.872" r="0.872" transform="translate(123.188 139.454)" fill="#20272b"/>
    <path id="Path_24197" data-name="Path 24197" d="M141.371,161a7.321,7.321,0,0,1-.948,3.441,3.485,3.485,0,0,1-2.61,1.52,4.147,4.147,0,0,1-2.567-.917,7.931,7.931,0,0,1-2.26-3.145A14.877,14.877,0,0,0,141.371,161Z" transform="translate(-17.651 -17.471)" fill="#ec7523"/>
    <path id="Path_24198" data-name="Path 24198" d="M129.365,157.114a1.817,1.817,0,0,1,2.166-1.11.358.358,0,0,0,.19-.69,2.545,2.545,0,0,0-3.042,1.607c-.163.431.525.614.69.19Z" transform="translate(-17.054 -16.676)" fill="#20272b"/>
    <path id="Path_24199" data-name="Path 24199" d="M141.561,154.7a2.241,2.241,0,0,1,1.983.546c.338.31.843-.193.5-.5a3,3,0,0,0-2.673-.729c-.448.094-.259.781.19.69Z" transform="translate(-18.773 -16.498)" fill="#20272b"/>
    <path id="Path_24200" data-name="Path 24200" d="M137.947,209.411l30.6,2.057c-.641-2.892-1.567-5.862-3.643-7.973-2.317-2.36-5.733-3.3-9.028-3.579a35.093,35.093,0,0,0-13.979,1.838,13.982,13.982,0,0,0-4.582,2.292,6,6,0,0,0-2.335,4.411,3.125,3.125,0,0,0,.253,1.153A9.965,9.965,0,0,1,137.947,209.411Z" transform="translate(-17.926 -22.826)" fill="#fe9f60"/>
    <path id="Path_24201" data-name="Path 24201" d="M103,145.384c-.266-.653-.769-3.649-1.1-4.291a1.105,1.105,0,0,0-1.974.1c-.2.42-.217,3.056-.618,3.285a4.244,4.244,0,0,1-3.662-.059c-1.466-.6-2.743-1.619-4.31-1.992a2.126,2.126,0,0,0-1.6.221c-1.128.7-.862,1.947-.295,2.825,2.456,3.82,9.073,3.1,11.3,7.065.452.8.66,1.718,1.035,2.559a3.141,3.141,0,0,0,1.889,1.888C104.547,157.221,107.741,156.993,103,145.384Z" transform="translate(-11.578 -14.649)" fill="#f9d5bc"/>
    <path id="Path_24202" data-name="Path 24202" d="M222.209,120.44q-5.91,6.825-11.269,14.093T200.786,149.5q-4.785,7.684-8.944,15.7-4.15,8-7.664,16.293t-6.355,16.819q-.359,1.074-.705,2.155c-.138.426.539.609.676.185q2.759-8.556,6.187-16.881,3.422-8.307,7.5-16.331,4.052-7.994,8.726-15.662t9.922-14.948q5.267-7.3,11.1-14.177.736-.866,1.479-1.724c.292-.337-.2-.831-.5-.491Z" transform="translate(-23.735 -11.862)" fill="#20272b"/>
    <path id="Path_24203" data-name="Path 24203" d="M184.73,170.527c-.215-1.628-.709-3.448-2.227-3.994-1.24-.443-2.922.1-3.72-.948-.51-.668-.529-1.865-1.359-2a1.059,1.059,0,0,0-1.075.84,3.6,3.6,0,0,0,.041,1.481,13.617,13.617,0,0,1,.147,1.926.765.765,0,0,0-.259.723.948.948,0,0,0,.216.424,15.065,15.065,0,0,1-4.545,9.7,2.52,2.52,0,0,0-.369,3.221c.506.757,1.075,1.364,1.795,1.221a3.569,3.569,0,0,0,1.782-1.207,26.056,26.056,0,0,0,2.784-3.522,5.929,5.929,0,0,1,1.391-1.647,6.56,6.56,0,0,0,3.16-.857,4.9,4.9,0,0,0,2.383-3.715,4.783,4.783,0,0,0-.146-1.649Z" transform="translate(-22.916 -17.828)" fill="#f9d5bc"/>
    <path id="Path_24204" data-name="Path 24204" d="M185.232,169.518a3.794,3.794,0,0,0-1.379-1.321,5.749,5.749,0,0,0-1.975-.525,17.325,17.325,0,0,0-2.122-.191,5.826,5.826,0,0,0-1.947.2,1.565,1.565,0,0,0-1.108,1.013,1.348,1.348,0,0,0,.575,1.345,6.2,6.2,0,0,0,1.975.89l.026.006c-.214.053-.431.109-.636.172-.712.228-1.7.544-1.912,1.367s.572,1.262,1.215,1.507a10.709,10.709,0,0,0,1.361.412c-.181.064-.365.119-.543.194A3.146,3.146,0,0,0,177.2,175.6a1.214,1.214,0,0,0,.32,1.5,2.837,2.837,0,0,0,1.823.525c2.665.134,5.4-1.006,6.37-3.648A5.271,5.271,0,0,0,185.232,169.518ZM184.948,174a4.761,4.761,0,0,1-2.685,2.514,6.749,6.749,0,0,1-2.177.414,3.568,3.568,0,0,1-1.988-.269c-.89-.616.3-1.134.807-1.359a9.511,9.511,0,0,1,2.161-.651c.421-.077.279-.667-.095-.7a10.338,10.338,0,0,1-2.169-.423c-.415-.128-1.788-.436-1.249-1.095a3.642,3.642,0,0,1,1.862-.8,9.477,9.477,0,0,1,2.174-.272.357.357,0,0,0,0-.713,9.139,9.139,0,0,1-3.519-.948c-.33-.172-.9-.554-.6-.991.243-.359.827-.436,1.217-.476a12.922,12.922,0,0,1,3.3.172,3.423,3.423,0,0,1,2.638,1.474,4.543,4.543,0,0,1,.328,4.121Z" transform="translate(-23.678 -18.363)" fill="#20272b"/>
    <path id="Path_24205" data-name="Path 24205" d="M160.853,127.175q.835,14.321.821,28.674-.016,14.264-.878,28.511-.484,8.01-1.235,16c-.041.446.671.442.713,0q1.34-14.286,1.832-28.63.486-14.256.129-28.523-.2-8.017-.669-16.035c-.027-.445-.739-.447-.713,0Z" transform="translate(-21.316 -12.76)" fill="#20272b"/>
    <path id="Path_24206" data-name="Path 24206" d="M175.355,179.148c-1.321,3.849-2.6,7.711-3.8,11.6q-2.341,7.577-4.379,15.24-.259.971-.511,1.943a.326.326,0,1,0,.629.172q2-7.673,4.3-15.259,2.036-6.711,4.325-13.347a2.108,2.108,0,0,1-.562-.348Z" transform="translate(-22.294 -19.974)" fill="#20272b"/>
    <path id="Path_24207" data-name="Path 24207" d="M198.016,121.7q-3.654,7.347-7.009,14.828-3.326,7.419-6.354,14.96c-1.279,3.185-2.5,6.39-3.7,9.6.216.047.431.094.647.135q1.4-3.767,2.881-7.509,3.009-7.612,6.324-15.106,3.289-7.428,6.873-14.727.457-.929.917-1.856C198.784,121.648,198.205,121.315,198.016,121.7Z" transform="translate(-24.267 -12.028)" fill="#20272b"/>
    <path id="Path_24208" data-name="Path 24208" d="M172.94,145.159c-.319,3.052-.77,6.09-1.228,9.123q-.936,6.188-1.989,12.355-1.133,6.748-2.328,13.487-1.11,6.28-2.26,12.555-.873,4.767-1.772,9.531l-.168.884c-.086.447.6.638.685.189q.868-4.548,1.7-9.1,1.135-6.179,2.235-12.365,1.2-6.739,2.342-13.485c.709-4.191,1.4-8.385,2.047-12.587.5-3.222.98-6.45,1.35-9.69q.052-.447.1-.895c.047-.453-.663-.451-.71,0Z" transform="translate(-21.816 -15.24)" fill="#20272b"/>
    <path id="Path_24209" data-name="Path 24209" d="M261.711,112.751a11.874,11.874,0,0,0-3.252-5.092c-1.584-1.461-3.3-2.419-4.046-4.563-.758-2.18,0-4.483-.589-6.713a9.4,9.4,0,0,0-3.661-5.278,11.157,11.157,0,0,0-11.417-.5c-1.791.948-3.1,2.344-5.254,2.464-2.342.131-4.163-1.3-6.183-2.253a27.07,27.07,0,0,0-27.14,2.278,28.244,28.244,0,0,0-8.586,9.938c-.91,1.766-1.315,3.961-2.655,5.467-1.724,1.94-4.37,1.718-6.56,2.8a9.758,9.758,0,0,0-5.259,10.741c.357,2.006.747,3.76-.047,5.75-.786,1.967-2.55,3.348-3.5,5.248a10.819,10.819,0,0,0,.89,11.369c2.795,3.8,6.965,4.683,11.38,3.872,5.412-.995,6.148,4.183,9.3,7.22a15.307,15.307,0,0,0,11.742,4.1,18.289,18.289,0,0,0,10.905-4.666,20.517,20.517,0,0,0,4-4.931c1.049-1.791,1.577-3.879,3.707-4.663,2.266-.839,4.569.6,6.875.645a12.314,12.314,0,0,0,6.687-1.943,16.058,16.058,0,0,0,5.067-5.2c1.287-2.075,1.755-4.339,2.719-6.534,2.241-5.1,8.038-2.941,11.6-6.452a13.438,13.438,0,0,0,3.274-13.093Zm-.908,6.973a12.111,12.111,0,0,1-3.223,5.614c-1.793,1.681-3.448,1.819-5.749,2.126-5.134.69-5.623,4.907-7.428,8.828-1.691,3.671-4.682,7.023-8.629,8.257a10.69,10.69,0,0,1-6.133.028c-2.169-.584-4.31-.759-6.14.831-1.552,1.345-2.166,3.641-3.307,5.318a18.853,18.853,0,0,1-4.605,4.763,16.921,16.921,0,0,1-12.338,3.012,14.059,14.059,0,0,1-9.411-6.017c-1.154-1.724-1.761-3.64-3.707-4.66-2.064-1.08-3.845-.472-5.987-.167a9.612,9.612,0,0,1-9.673-4.967c-2.142-3.862-1.175-8.2,1.436-11.552a10.1,10.1,0,0,0,2.524-4.828c.366-2.375-.7-4.561-.563-6.922.274-4.76,3.838-7.1,8.022-8.155,4.716-1.189,5.142-5.523,7.328-9.18a27.3,27.3,0,0,1,7.978-8.5,26.151,26.151,0,0,1,25.447-2.025c2.148.976,3.992,2.485,6.458,2.5,2.81.012,4.353-1.822,6.732-2.894,4.194-1.889,9.58-.839,12.081,3.2,1.333,2.155,1.167,4.15,1.188,6.547A7.9,7.9,0,0,0,256.138,107C260.095,110.355,262.3,114.382,260.8,119.723Z" transform="translate(-23.08 -7.431)" fill="#b5e6d2"/>
    <path id="Path_24210" data-name="Path 24210" d="M240.771,177.522a26.121,26.121,0,0,0-3.488,14.711,65.537,65.537,0,0,0-8.992-9.761c-.684-.6-1.7.4-1.008,1.008a64.228,64.228,0,0,1,10.38,11.7.716.716,0,0,0,1.3-.549A24.621,24.621,0,0,1,242,178.241a.713.713,0,0,0-1.23-.719Z" transform="translate(-30.624 -19.704)" fill="#20272b"/>
    <path id="Path_24211" data-name="Path 24211" d="M267.446,171.107a.728.728,0,0,0-.876.5l-2.084,5.517a8.9,8.9,0,0,1-1.492-2.556.732.732,0,0,0-.877-.5.718.718,0,0,0-.5.877,10.648,10.648,0,0,0,2.621,4.007.722.722,0,0,0,1.191-.315l2.512-6.654a.717.717,0,0,0-.5-.877Z" transform="translate(-35.388 -18.862)" fill="#20272b"/>
    <path id="Path_24212" data-name="Path 24212" d="M255.209,207.167a16.666,16.666,0,0,0-1.441,4.129l-3.078-5.776c-.431-.81-1.661-.086-1.23.719l4.068,7.635a.718.718,0,0,0,1.328-.359,14.949,14.949,0,0,1,1.583-5.629C256.854,207.07,255.625,206.349,255.209,207.167Z" transform="translate(-33.702 -23.562)" fill="#20272b"/>
    <path id="Path_24213" data-name="Path 24213" d="M252.352,130.09a12.156,12.156,0,0,0-3.022,4.378,17.4,17.4,0,0,1-2.14-3.679.717.717,0,0,0-.974-.259.732.732,0,0,0-.259.975,18.333,18.333,0,0,0,3.116,4.9.718.718,0,0,0,1.191-.314,10.784,10.784,0,0,1,3.092-4.995C254.035,130.475,253.026,129.468,252.352,130.09Z" transform="translate(-33.219 -13.181)" fill="#20272b"/>
    <path id="Path_24214" data-name="Path 24214" d="M205.962,197.559a.718.718,0,0,0-1.008,0,9.7,9.7,0,0,0-1.9,3.691,6.254,6.254,0,0,1-1.586-2.086.718.718,0,0,0-.974-.259.728.728,0,0,0-.259.974,7.489,7.489,0,0,0,2.929,3.2.717.717,0,0,0,1.047-.426,8.229,8.229,0,0,1,1.748-4.091.734.734,0,0,0,0-1.008Z" transform="translate(-26.914 -22.485)" fill="#20272b"/>
    <path id="Path_24217" data-name="Path 24217" d="M184.828,216.525a10.194,10.194,0,0,0-1.347-1.179.407.407,0,0,0-.191-.14,10.577,10.577,0,0,0-5.3-1.883l-4.016-.27-9.686-.651-11.82-.795-10.415-.7-5.464-.367a10.559,10.559,0,0,0-10.393,6.184c-1.019,2.328-.961,4.987-1.129,7.479l-.758,11.278q-.281,4.169-.56,8.337a10.939,10.939,0,0,0,.673,4.839,10.55,10.55,0,0,0,5.243,5.62,16.468,16.468,0,0,0,6.168,1.141l8.609.578,11.667.785,11.043.742,7,.47c.565.039,1.132.086,1.7.081a10.442,10.442,0,0,0,10.239-9.742c.047-.666.086-1.331.134-2l.7-10.393.672-10c.048-.715.122-1.435.128-2.155a10.479,10.479,0,0,0-2.895-7.266Zm-45.8-5.107,8.637.58,11.447.77,10.933.734,6.975.469.972.066a9.742,9.742,0,0,1,4.576,1.546,200.384,200.384,0,0,1-21.308,15.881q-3.1,2.008-6.293,3.9-9.82-8.438-18.827-17.759-2.5-2.586-4.928-5.247a9.63,9.63,0,0,1,2.134-.84,17.9,17.9,0,0,1,5.683-.1ZM124.715,240.04l.747-11.121.555-8.249a10.383,10.383,0,0,1,1.243-4.483,9.843,9.843,0,0,1,3.314-3.468q7.079,7.736,14.733,14.914-8.676,5.862-16.742,12.566c-1.379,1.148-2.741,2.322-4.093,3.505a1.369,1.369,0,0,1,.009-.187q.118-1.74.234-3.476Zm57,15.22a9.78,9.78,0,0,1-6.7,2.082c-1.431-.09-2.861-.193-4.292-.289l-9.636-.647-11.623-.781-10.259-.69-5.529-.372a10.056,10.056,0,0,1-4.257-1.207,9.828,9.828,0,0,1-4.7-6.058,10,10,0,0,1-.284-2.648.382.382,0,0,0,.095-.055,208.365,208.365,0,0,1,16.4-13.049q2.4-1.719,4.847-3.368a.369.369,0,0,0,.058-.059c1.086,1.016,2.169,2.034,3.276,3.032q2.747,2.485,5.56,4.9a.345.345,0,0,0,.294.086.326.326,0,0,0,.185-.047q4.849-2.881,9.528-6.035l.006.007c5.753,3.923,10.853,8.707,16,13.368q2.353,2.129,4.735,4.224c-.018.252-.032.5-.051.754A9.765,9.765,0,0,1,181.72,255.26Zm5.266-30.857c-.137,2.194-.295,4.386-.442,6.58l-.763,11.357-.3,4.4c-5.3-4.661-10.379-9.583-15.914-13.966q-2.078-1.646-4.26-3.155,6.264-4.248,12.2-8.953,2.868-2.276,5.648-4.66a9.587,9.587,0,0,1,3.826,8.4Z" transform="translate(-16.372 -24.3)" fill="#20272b"/>
    <path id="Path_24218" data-name="Path 24218" d="M71.35,259.349l10.069-1.1a.733.733,0,0,0,.712-.712.716.716,0,0,0-.712-.712l-10.069,1.1a.734.734,0,0,0-.712.712A.717.717,0,0,0,71.35,259.349Z" transform="translate(-9.053 -30.686)" fill="#20272b"/>
    <path id="Path_24219" data-name="Path 24219" d="M46.112,217.223l17.169-1.306c.909-.069.916-1.494,0-1.424L46.112,215.8C45.2,215.867,45.2,217.292,46.112,217.223Z" transform="translate(-5.576 -24.848)" fill="#20272b"/>
    <path id="Path_24220" data-name="Path 24220" d="M66.523,199.061l16.756-.271a.713.713,0,0,0,0-1.425l-16.756.272a.713.713,0,0,0,0,1.424Z" transform="translate(-8.392 -22.486)" fill="#20272b"/>
    <path id="Path_24221" data-name="Path 24221" d="M37.856,149.881l7.539-.419c.911-.05.917-1.475,0-1.424l-7.539.419C36.944,148.507,36.938,149.932,37.856,149.881Z" transform="translate(-4.437 -15.683)" fill="#20272b"/>
    <path id="Path_24222" data-name="Path 24222" d="M70.412,116.318,83.4,115.062a.732.732,0,0,0,.712-.712.717.717,0,0,0-.712-.712l-12.984,1.255a.733.733,0,0,0-.713.712A.718.718,0,0,0,70.412,116.318Z" transform="translate(-8.924 -10.94)" fill="#20272b"/>
    <path id="Path_24223" data-name="Path 24223" d="M150.427,194.23a54.54,54.54,0,0,0-2.633-11.884c-1.407-4.3-4.4-8.525-8.805-9.535a11.423,11.423,0,0,0-8.891,2.11c.052.032.1.059.155.093a5.037,5.037,0,0,1,1.924,2.2c.824,1.94.086,3.707-1.1,5.25a6.594,6.594,0,0,1-4.1,2.474c-1.81.316-3.656.595-5.485.728a43.054,43.054,0,0,1-3.831,5.473c-1.425,1.666-3.073,3.146-4.344,4.932a8.362,8.362,0,0,0-1.768,6.154c.5,2.795,3.1,4.872,5.871,5.485a15.784,15.784,0,0,0,8.362-.892c2.69-.907,5.284-2.121,8.044-2.786,4.591-1.108,9.513-.666,13.712-3.436A7.4,7.4,0,0,0,150.427,194.23Z" transform="translate(-14.689 -19.075)" fill="#b7e9d4"/>
    <path id="Path_24224" data-name="Path 24224" d="M129.6,174.528a4.677,4.677,0,0,0-1.787-2.047c-2.629-1.714-5.857-1.358-8.621-2.53-2.81-1.192-4.766-3.816-6.086-6.567s-2.141-5.722-3.478-8.465a12.048,12.048,0,0,0-1.675-2.635c-.468.285-.926.591-1.389.886,1.421,6.148-.948,6.263-1.745,6.055a3.666,3.666,0,0,1-2.2-2.2c-.131-.292-.244-.593-.353-.895a51.116,51.116,0,0,0-4.879,4.148,32.076,32.076,0,0,0,1.684,6.371c1.71,5.023,3.716,10.411,8.169,13.3,2.931,1.9,6.542,2.423,10.032,2.511a38.662,38.662,0,0,0,7.505-.753,6.121,6.121,0,0,0,3.8-2.3C129.683,177.968,130.367,176.329,129.6,174.528Z" transform="translate(-12.742 -16.269)" fill="#b7e9d4"/>
    <path id="Path_24225" data-name="Path 24225" d="M154.806,140.555c.231,3.378.372,6.761.495,10.145q.233,6.444.351,12.891.138,6.946.188,13.893.047,6.552,0,13.113c-.029,3.519-.078,7.038-.209,10.555q-.02.532-.042,1.063c-.02.459.69.458.712,0,.145-3.382.2-6.768.237-10.154q.068-6.448.023-12.9-.037-6.947-.166-13.893-.121-6.552-.333-13.109c-.118-3.517-.259-7.035-.476-10.547q-.034-.532-.07-1.062c-.031-.455-.744-.459-.712,0Z" transform="translate(-20.66 -14.604)" fill="#20272b"/>
    <path id="Path_24226" data-name="Path 24226" d="M143.141,81.424a.475.475,0,1,0,.446.474.475.475,0,0,0-.446-.474Z" transform="translate(-18.99 -6.497)" fill="#20272b"/>
    <path id="Path_24227" data-name="Path 24227" d="M150.266,94.38a.475.475,0,1,0,.446.474A.475.475,0,0,0,150.266,94.38Z" transform="translate(-19.973 -8.284)" fill="#20272b"/>
    <path id="Path_24228" data-name="Path 24228" d="M170.671,80.453a.475.475,0,1,0,.446.474A.475.475,0,0,0,170.671,80.453Z" transform="translate(-22.787 -6.363)" fill="#20272b"/>
    <path id="Path_24229" data-name="Path 24229" d="M176.177,104.744a.475.475,0,1,0,.446.474.475.475,0,0,0-.446-.474Z" transform="translate(-23.546 -9.713)" fill="#20272b"/>
    <path id="Path_24230" data-name="Path 24230" d="M183.951,91.465a.475.475,0,1,0,.446.474A.475.475,0,0,0,183.951,91.465Z" transform="translate(-24.618 -7.882)" fill="#20272b"/>
    <path id="Path_24231" data-name="Path 24231" d="M197.229,84.663a.475.475,0,1,0,.446.474A.475.475,0,0,0,197.229,84.663Z" transform="translate(-26.45 -6.944)" fill="#20272b"/>
    <path id="Path_24232" data-name="Path 24232" d="M181.36,64.258a.475.475,0,1,0,.446.474A.475.475,0,0,0,181.36,64.258Z" transform="translate(-24.261 -4.13)" fill="#20272b"/>
    <path id="Path_24233" data-name="Path 24233" d="M162.574,68.793a.475.475,0,1,0,.446.474A.475.475,0,0,0,162.574,68.793Z" transform="translate(-21.67 -4.755)" fill="#20272b"/>
    <path id="Path_24234" data-name="Path 24234" d="M177.8,41.91a.475.475,0,1,0,.446.474A.475.475,0,0,0,177.8,41.91Z" transform="translate(-23.77 -1.048)" fill="#20272b"/>
    <path id="Path_24235" data-name="Path 24235" d="M193.991,47.092a.475.475,0,1,0,.446.474A.475.475,0,0,0,193.991,47.092Z" transform="translate(-26.003 -1.762)" fill="#20272b"/>
    <path id="Path_24236" data-name="Path 24236" d="M163.87,57.133a.475.475,0,1,0,.446.474A.475.475,0,0,0,163.87,57.133Z" transform="translate(-21.849 -3.147)" fill="#20272b"/>
    <path id="Path_24237" data-name="Path 24237" d="M210.51,101.5a.475.475,0,1,0,.446.474.475.475,0,0,0-.446-.474Z" transform="translate(-28.281 -9.266)" fill="#20272b"/>
    <path id="Path_24238" data-name="Path 24238" d="M205.651,121.587a.475.475,0,1,0,.446.474.475.475,0,0,0-.446-.474Z" transform="translate(-27.611 -12.036)" fill="#20272b"/>
    <path id="Path_24239" data-name="Path 24239" d="M189.781,121.263a.475.475,0,1,0,.446.474A.475.475,0,0,0,189.781,121.263Z" transform="translate(-25.422 -11.991)" fill="#20272b"/>
    <path id="Path_24240" data-name="Path 24240" d="M161.929,114.461a.475.475,0,1,0,.446.474.475.475,0,0,0-.446-.474Z" transform="translate(-21.581 -11.053)" fill="#20272b"/>
    <path id="Path_24241" data-name="Path 24241" d="M138.606,119a.475.475,0,1,0,.446.474A.475.475,0,0,0,138.606,119Z" transform="translate(-18.365 -11.679)" fill="#20272b"/>
    <path id="Path_24242" data-name="Path 24242" d="M136.015,107.659a.475.475,0,1,0,.447.474.475.475,0,0,0-.447-.474Z" transform="translate(-18.008 -10.115)" fill="#20272b"/>
    <path id="Path_24243" data-name="Path 24243" d="M102.978,106.364a.475.475,0,1,0,.446.474A.475.475,0,0,0,102.978,106.364Z" transform="translate(-13.451 -9.936)" fill="#20272b"/>
    <path id="Path_24244" data-name="Path 24244" d="M92.938,76.566a.475.475,0,1,0,.446.474A.475.475,0,0,0,92.938,76.566Z" transform="translate(-12.067 -5.827)" fill="#20272b"/>
    <path id="Path_24245" data-name="Path 24245" d="M71.885,92.437a.475.475,0,1,0,.446.474.475.475,0,0,0-.446-.474Z" transform="translate(-9.163 -8.016)" fill="#20272b"/>
    <path id="Path_24246" data-name="Path 24246" d="M38.848,108.955a.475.475,0,1,0,.446.474.475.475,0,0,0-.446-.474Z" transform="translate(-4.607 -10.294)" fill="#20272b"/>
    <path id="Path_24247" data-name="Path 24247" d="M35.609,77.862a.475.475,0,1,0,.446.474A.475.475,0,0,0,35.609,77.862Z" transform="translate(-4.161 -6.006)" fill="#20272b"/>
    <path id="Path_24248" data-name="Path 24248" d="M58.282,80.129a.475.475,0,1,0,.446.474.475.475,0,0,0-.446-.474Z" transform="translate(-7.287 -6.318)" fill="#20272b"/>
    <path id="Path_24249" data-name="Path 24249" d="M75.448,51.95a.475.475,0,1,0,.446.474.475.475,0,0,0-.446-.474Z" transform="translate(-9.655 -2.432)" fill="#20272b"/>
    <path id="Path_24250" data-name="Path 24250" d="M25.893,96.971a.475.475,0,1,0,.446.474.475.475,0,0,0-.446-.474Z" transform="translate(-2.821 -8.641)" fill="#20272b"/>
    <path id="Path_24251" data-name="Path 24251" d="M116.258,130.656a.475.475,0,1,0,.446.474A.475.475,0,0,0,116.258,130.656Z" transform="translate(-15.283 -13.286)" fill="#20272b"/>
    <path id="Path_24252" data-name="Path 24252" d="M230.915,133.247a.475.475,0,1,0,.446.474A.475.475,0,0,0,230.915,133.247Z" transform="translate(-31.095 -13.644)" fill="#20272b"/>
    <path id="Path_24253" data-name="Path 24253" d="M253.587,104.1a.475.475,0,1,0,.446.474A.475.475,0,0,0,253.587,104.1Z" transform="translate(-34.222 -9.624)" fill="#20272b"/>
    <path id="Path_24254" data-name="Path 24254" d="M271.729,73.651a.475.475,0,1,0,.446.474.475.475,0,0,0-.446-.474Z" transform="translate(-36.724 -5.425)" fill="#20272b"/>
    <path id="Path_24255" data-name="Path 24255" d="M294.4,107.012a.475.475,0,1,0,.446.474A.475.475,0,0,0,294.4,107.012Z" transform="translate(-39.85 -10.026)" fill="#20272b"/>
    <path id="Path_24256" data-name="Path 24256" d="M287.271,116.728a.475.475,0,1,0,.446.474A.475.475,0,0,0,287.271,116.728Z" transform="translate(-38.867 -11.366)" fill="#20272b"/>
    <path id="Path_24257" data-name="Path 24257" d="M282.413,95.028a.475.475,0,1,0,.446.474A.475.475,0,0,0,282.413,95.028Z" transform="translate(-38.197 -8.373)" fill="#20272b"/>
    <path id="Path_24258" data-name="Path 24258" d="M224.761,105.716a.475.475,0,1,0,.446.474A.475.475,0,0,0,224.761,105.716Z" transform="translate(-30.246 -9.847)" fill="#20272b"/>
    <path id="Icon_feather-check" data-name="Icon feather-check" d="M40.089,9,16.653,32.437,6,21.784" transform="translate(110.457 59.803)" fill="none" stroke="#fff" strokeLinecap="round" strokeLinejoin="round" strokeWidth="2"/>
  </g>
</svg>
